<svg xmlns="http://www.w3.org/2000/svg" data-name="Layer 1" viewBox="0 0 24 24"><path fill="#bc9a7e" d="M17.44,9.87l-5,13.66L6.54,9.92a1,1,0,0,1,.92-1.4h9A1,1,0,0,1,17.44,9.87Z"/><path fill="#eb418b" d="M9,4a2.21,2.21,0,0,1-.05-.51,3,3,0,1,1,6,0,1.09,1.09,0,0,1,0,.18"/><path fill="#f38fbc" d="M12.53,3.87h0a3,3,0,0,1,1.39-.34,2.72,2.72,0,0,1,1,.18,3,3,0,0,1,1.24,4.82H13.93Z"/><path fill="#2d80c4" d="M7.06,8.53a3.66,3.66,0,0,1-.13-1,4,4,0,0,1,4-4,3.89,3.89,0,0,1,1.6.34h0a3.88,3.88,0,0,1,1.75,1.5,3.94,3.94,0,0,1,.64,2.16,3.66,3.66,0,0,1-.13,1"/><path fill="none" d="M6.8 10.53h.66a1.94 1.94 0 0 1 .89.21l.69.34a2 2 0 0 0 1.78 0L11 11a2 2 0 0 1 1.78 0l.22.1a2 2 0 0 0 1.78 0l.69-.34a1.94 1.94 0 0 1 .89-.21h.8M7.67 12.54a2 2 0 0 1 .68.2l.69.34a2 2 0 0 0 1.78 0L11 13a2 2 0 0 1 1.78 0l.22.1a2 2 0 0 0 1.78 0l.69-.34a1.94 1.94 0 0 1 .89-.21h.06"/><path d="M17.73,8.67A1.49,1.49,0,0,0,17,8.13a3.44,3.44,0,0,0-1.61-4.76,3.49,3.49,0,0,0-7,.15c0,.07,0,.17,0,.27a4.49,4.49,0,0,0-2,3.73,4.24,4.24,0,0,0,.09.84,1.46,1.46,0,0,0-.44,1.76L12,23.72a.5.5,0,0,0,.46.3h0a.5.5,0,0,0,.46-.33l4.76-13v0l.24-.66A1.5,1.5,0,0,0,17.73,8.67Zm-1.3-2.14A2.47,2.47,0,0,1,15.92,8H15.4a4.52,4.52,0,0,0,0-.5A4.53,4.53,0,0,0,13.77,4a2.36,2.36,0,0,1,1,.15A2.48,2.48,0,0,1,16.43,6.52ZM11.93,1a2.49,2.49,0,0,1,2.44,2,3.5,3.5,0,0,0-1.84.27,4.46,4.46,0,0,0-3.08,0A2.49,2.49,0,0,1,11.93,1ZM9.23,4.47a3.48,3.48,0,0,1,3.1-.15l.06,0a3.38,3.38,0,0,1,1.48,1.29A3.44,3.44,0,0,1,14.4,8H7.47a3.43,3.43,0,0,1,0-.5A3.5,3.5,0,0,1,9.23,4.47ZM12.4,22.18,8.6,13.41l.22.11a2.5,2.5,0,0,0,1.12.26A2.44,2.44,0,0,0,11,13.53l.24-.11a1.51,1.51,0,0,1,1.35,0l.2.09a2.5,2.5,0,0,0,2.22,0l.64-.32Zm3.71-10.12a2.37,2.37,0,0,0-.81.23l-.69.34a1.51,1.51,0,0,1-1.35,0l-.2-.09a2.49,2.49,0,0,0-2.21,0l-.24.11a1.5,1.5,0,0,1-1.33,0l-.68-.34A2.33,2.33,0,0,0,8,12.1L7.57,11a1.44,1.44,0,0,1,.57.15l.69.34a2.5,2.5,0,0,0,1.12.26A2.44,2.44,0,0,0,11,11.53l.24-.11a1.51,1.51,0,0,1,1.35,0l.2.09a2.5,2.5,0,0,0,2.22,0l.7-.34A1.44,1.44,0,0,1,16.4,11h.08ZM17,9.7l-.12.33H16.4a2.43,2.43,0,0,0-1.11.26l-.69.34a1.52,1.52,0,0,1-1.35,0l-.2-.09a2.49,2.49,0,0,0-2.21,0l-.24.11a1.5,1.5,0,0,1-1.33,0l-.68-.34A2.44,2.44,0,0,0,7.46,10H7.13L7,9.72A.5.5,0,0,1,7.46,9h9A.5.5,0,0,1,17,9.7Z"/></svg>